<svg id="レイヤー_1" data-name="レイヤー 1" xmlns="http://www.w3.org/2000/svg" viewBox="0 0 1217.16 224.54"><defs><style>.cls-1,.cls-3{fill:#ffd000;}.cls-2{fill:none;stroke:#ffd000;stroke-miterlimit:10;stroke-width:5px;}.cls-3{opacity:0.45;}</style></defs><title>logo</title><path class="cls-1" d="M191.28,43l-14.91,84.3c-4.22,28.2-12.49,35.82-37.94,35.34l2.27-12.81c12,.65,17.83-5.67,20.43-22.37L176,43ZM182,8.94h15.24L194,27.42H178.8Z"/><path class="cls-1" d="M203.6,43h11.84l.81,5.67c5.35-5.18,10.37-7.13,18.31-7.13,15.73,0,23.19,7.13,23.19,22.37a89,89,0,0,1-1.3,13.78l-2.92,16.54c-4.21,23.34-12.81,32.74-30,32.74-7.78,0-13.45-2.1-18.32-6.64l-7.29,41.5H182.69ZM241.53,75.4a54.28,54.28,0,0,0,.82-8.43c0-8.43-3.73-12.64-11-12.64-9.89,0-15.72,7.13-18.48,22.69l-2.43,14.27a54.34,54.34,0,0,0-1,9.56c0,8.92,4.05,13.46,11.67,13.46,9.24,0,14.75-7,17.51-22.37Z"/><path class="cls-1" d="M270.55,60.16h41.18l-2.27,13.3H268.28Z"/><path class="cls-1" d="M327.45,43h11.84l.81,5.67c5.35-5.18,10.37-7.13,18.32-7.13,15.72,0,23.18,7.13,23.18,22.37a89,89,0,0,1-1.3,13.78l-2.92,16.54c-4.21,23.34-12.8,32.74-30,32.74-7.78,0-13.45-2.1-18.31-6.64l-7.3,41.5H306.54ZM365.39,75.4A55.43,55.43,0,0,0,366.2,67c0-8.43-3.73-12.64-11-12.64-9.89,0-15.73,7.13-18.49,22.69l-2.43,14.27a54.34,54.34,0,0,0-1,9.56c0,8.92,4,13.46,11.67,13.46,9.24,0,14.75-7,17.51-22.37Z"/><path class="cls-1" d="M389.71,73.3c4.05-22.86,13.45-31.78,33.39-31.78,18.32,0,27.07,7.46,27.07,23.18a80.75,80.75,0,0,1-1.46,13.46L445.8,95C441.74,117.88,432.34,127,412.4,127c-18.16,0-27.07-7.62-27.07-23.34a76.83,76.83,0,0,1,1.46-13.46ZM434,75.56a60.87,60.87,0,0,0,1-9.56c0-7.94-4.21-12-12.15-12-10.38,0-15.57,6.16-18.16,21.56l-3.08,17.19a55.83,55.83,0,0,0-1,9.56c0,8.11,4.21,12.16,12.16,12.16,10.37,0,15.4-6,18.15-21.72Z"/><path class="cls-1" d="M458.77,43H474l2.11,60.79L502.53,43h10.7l5.19,60.79L541.77,43h15.72l-35.18,82.35h-13l-5.51-57.22-25.94,57.22h-12.8Z"/><path class="cls-1" d="M567.87,93.4a54,54,0,0,0-.81,8.26c0,8.6,4.37,13,12.8,13,7.95,0,12.81-3.4,16.21-11.67l12.65,2.92C603.21,121,594.45,127,577.75,127,560.57,127,552,119,552,103a88,88,0,0,1,1.46-15.07l2.11-11.84c2.26-12.81,4.86-19.29,9.72-25,5.68-6.65,13.13-9.57,24-9.57,17.84,0,26.43,7.78,26.43,23.83,0,5.84-.81,12-2.76,22.21H568.84Zm32.42-17.19a61.36,61.36,0,0,0,1.13-10.37c0-8.43-4-12.48-12.16-12.48-9.72,0-15.56,6.32-17.83,19.77l-.65,3.08Z"/><path class="cls-1" d="M630.12,43H642l.65,7c5.19-6.16,9.73-8.43,17.18-8.43,5.19,0,8.76,1.14,13.78,4.54l-8.91,12.65c-3.25-2.92-5.68-4.06-8.92-4.06-8.75,0-13.94,9.08-17.67,30.64l-7.13,40H615.69Z"/><path class="cls-1" d="M672.1,60.16h41.18L711,73.46H669.83Z"/><path class="cls-1" d="M721.87,73.3c4.06-22.86,13.46-31.78,33.4-31.78,18.32,0,27.07,7.46,27.07,23.18a81.83,81.83,0,0,1-1.46,13.46L778,95C773.91,117.88,764.51,127,744.57,127c-18.16,0-27.07-7.62-27.07-23.34A76.7,76.7,0,0,1,719,90.15Zm44.26,2.26a60.87,60.87,0,0,0,1-9.56c0-7.94-4.21-12-12.16-12-10.37,0-15.56,6.16-18.15,21.56l-3.08,17.19a56,56,0,0,0-1,9.56c0,8.11,4.22,12.16,12.16,12.16,10.38,0,15.4-6,18.16-21.72Z"/><path class="cls-1" d="M812.33,43,803.9,90.8c-1.3,6.65-1.46,8.59-1.46,11.35,0,7.78,3.24,11.51,9.73,11.51,9.73,0,14.59-7,17.83-25.29L837.94,43h15.24l-14.43,82.35h-11l-.32-7.45c-5.35,6.64-10.54,9.07-19.62,9.07-13.45,0-21.07-7.13-21.07-19.61a106.59,106.59,0,0,1,1.94-17.19L796.93,43Z"/><path class="cls-1" d="M857.24,55.46,859.34,43h8.76l5.18-25.13h14.27L883.17,43H897l-2.1,12.48h-14L873.61,96.8a58,58,0,0,0-1,8.27c0,5.51,2.43,7.46,9.56,7.46H885l-2.27,12.8h-3.08c-16.86,0-22.7-3.89-22.7-14.75,0-3.89.65-9.24,2-16.86l6.81-38.26Z"/><path class="cls-1" d="M936.51,71.84a43,43,0,0,0,.81-7.79c0-6.8-3.41-10-10.86-10S915,57.08,911.06,65.35l-12.49-3.89c5.52-13.62,14.76-19.94,28.86-19.94,16.53,0,25.13,7,25.13,20.59,0,3.73-.49,7.29-1.46,13.62l-8.76,49.6H930.19l-.49-3.73c-4.7,3.89-9.57,5.35-18.64,5.35-15.89,0-23.51-5.67-23.51-17.5,0-9.73,3.08-19.62,7.62-24.81,4.86-5.51,12.81-8.1,25.13-8.1h15.23ZM921.43,87.72c-7,0-11.18,1.46-14.1,4.7-2.6,3.08-4.38,8.76-4.38,14.27,0,6,3.41,8.27,12.16,8.27,10.54,0,14.43-3.57,16.37-15.24l2.11-12Z"/><path class="cls-1" d="M996.81,121c-4.86,4.37-9.72,6-17,6-15.08,0-22.53-7.45-22.53-22.69a85.26,85.26,0,0,1,1.46-15.08l2.91-16.37c3.9-22.37,12.32-31.29,29.51-31.29,9.72,0,15.07,2.11,19.94,7.62L1014,43h11.83l-14.91,84.46c-4.38,24.64-15.73,35.83-36.64,35.83-15.4,0-22-5.52-23-19.3l13.45-3.08c1,7.46,3.9,10.22,11.19,10.22,10.86,0,16.86-6.81,19.45-22.21ZM973.47,91.78a62.5,62.5,0,0,0-.81,9.4c0,8.59,3.73,13,11,13,9.73,0,15.56-7.3,18.32-22.86L1004.59,77a62.5,62.5,0,0,0,.81-9.4c0-8.75-4-13.45-11.67-13.45-9.4,0-14.75,6.64-17.34,21.23Z"/><path class="cls-1" d="M1042.69,93.4a54,54,0,0,0-.81,8.26c0,8.6,4.38,13,12.81,13,7.94,0,12.8-3.4,16.21-11.67l12.64,2.92C1078,121,1069.28,127,1052.58,127c-17.18,0-25.78-7.94-25.78-24a89,89,0,0,1,1.46-15.07l2.11-11.84c2.27-12.81,4.86-19.29,9.73-25,5.67-6.65,13.13-9.57,24-9.57,17.83,0,26.42,7.78,26.42,23.83,0,5.84-.81,12-2.75,22.21h-44.1Zm32.42-17.19a61.59,61.59,0,0,0,1.14-10.37c0-8.43-4.06-12.48-12.16-12.48-9.73,0-15.56,6.32-17.83,19.77l-.65,3.08Z"/><path class="cls-1" d="M202.33,194.14h7.52c5.8-.09,8.65,2.85,8.49,8.78v5.31c.16,5.93-2.69,8.84-8.49,8.78h-7.52Zm6.91,20.12c4,.06,5.64-1.7,5.67-6.31v-4.74c0-4.62-1.63-6.41-5.67-6.31h-3.49v17.36Z"/><path class="cls-1" d="M225.58,210.22c0,2.95,1.41,4.52,4,4.52a3.92,3.92,0,0,0,3.53-1.64l2.43,1.44c-1.35,2-3.17,2.79-6.28,2.79-4.83,0-7-2.37-7-7.72v-1.25c0-5.57,2-7.94,6.79-7.94s6.79,2.37,6.79,7.94v1.28H225.58Zm7.2-2.92V207c0-2.62-1.25-4-3.58-4a3.06,3.06,0,0,0-3,1.44,5.44,5.44,0,0,0-.64,2.63v.28Z"/><path class="cls-1" d="M237.75,200.74h3.3l4,12.2,4-12.2h3.3L246.55,217h-3Z"/><path class="cls-1" d="M257.67,210.22c0,2.95,1.41,4.52,4,4.52a3.92,3.92,0,0,0,3.53-1.64l2.43,1.44c-1.34,2-3.17,2.79-6.28,2.79-4.83,0-7-2.37-7-7.72v-1.25c0-5.57,2-7.94,6.79-7.94s6.79,2.37,6.79,7.94v1.28H257.67Zm7.2-2.92V207c0-2.62-1.24-4-3.58-4a3.06,3.06,0,0,0-3,1.44,5.44,5.44,0,0,0-.64,2.63v.28Z"/><path class="cls-1" d="M275,194.14v17.1c0,2.37.64,3.11,2.79,3.11h.71V217h-.84c-4.74,0-5.92-1.22-5.92-6.09V194.14Z"/><path class="cls-1" d="M280.18,207.63c0-5,2.12-7.21,6.89-7.21s6.85,2.21,6.85,7.21v2.49c0,5-2.11,7.21-6.85,7.21s-6.89-2.21-6.89-7.21Zm10.47.22c0-3.33-1.08-4.8-3.61-4.8s-3.59,1.47-3.59,4.8v2.05c0,3.33,1.09,4.8,3.59,4.8s3.61-1.47,3.61-4.8Z"/><path class="cls-1" d="M298,200.74h2.53l.32,1.22a6.06,6.06,0,0,1,4.48-1.54c4.26,0,6.12,2.21,6.12,7.24v2.43c0,5-1.86,7.24-6.12,7.24a6.2,6.2,0,0,1-4.07-1.28v8.17H298Zm10.21,7.14c0-3.3-1.09-4.83-3.46-4.83s-3.49,1.44-3.49,4.35v2.95c0,2.91,1.16,4.35,3.49,4.35s3.46-1.53,3.46-4.83Z"/><path class="cls-1" d="M318.17,210.22c0,2.95,1.4,4.52,4,4.52a3.9,3.9,0,0,0,3.52-1.64l2.44,1.44c-1.35,2-3.17,2.79-6.28,2.79-4.84,0-7-2.37-7-7.72v-1.25c0-5.57,2-7.94,6.79-7.94s6.79,2.37,6.79,7.94v1.28H318.17Zm7.2-2.92V207c0-2.62-1.25-4-3.59-4a3.05,3.05,0,0,0-3,1.44,5.44,5.44,0,0,0-.64,2.63v.28Z"/><path class="cls-1" d="M332.26,200.74h2.53l.35,1.38a4.1,4.1,0,0,1,3.65-1.7,6.26,6.26,0,0,1,3.3.93l-1.41,2.72a3.46,3.46,0,0,0-2.21-.83c-2.08,0-3,1.73-3,5.86V217h-3.26Z"/><path class="cls-1" d="M350.16,194.14h13.58V197H353.59v7.24h8.58V207h-8.58v10h-3.43Z"/><path class="cls-1" d="M366.49,200.74H369l.36,1.38a4.1,4.1,0,0,1,3.65-1.7,6.29,6.29,0,0,1,3.3.93l-1.41,2.72a3.48,3.48,0,0,0-2.21-.83c-2.09,0-2.95,1.73-2.95,5.86V217h-3.27Z"/><path class="cls-1" d="M378.12,194h3.27v3.72h-3.27Zm0,6.76h3.27V217h-3.27Z"/><path class="cls-1" d="M388.69,210.22c0,2.95,1.41,4.52,4,4.52a3.92,3.92,0,0,0,3.53-1.64l2.43,1.44c-1.35,2-3.17,2.79-6.28,2.79-4.83,0-7-2.37-7-7.72v-1.25c0-5.57,2-7.94,6.79-7.94s6.79,2.37,6.79,7.94v1.28H388.69Zm7.2-2.92V207c0-2.62-1.25-4-3.58-4a3.06,3.06,0,0,0-3,1.44,5.44,5.44,0,0,0-.64,2.63v.28Z"/><path class="cls-1" d="M402.78,200.74h2.5l.25,1.63c1-1.37,2.31-2,4.46-2,2.85,0,4.67,1.06,5.44,3.14a12.9,12.9,0,0,1,.48,4.13V217h-3.27v-9c0-3.46-.89-4.83-3.2-4.83-2.47,0-3.39,1.5-3.39,5.47V217h-3.27Z"/><path class="cls-1" d="M430.51,215.76a1.26,1.26,0,0,0-.19.16,3.76,3.76,0,0,1-.41.38,6.52,6.52,0,0,1-3.91,1c-4.33,0-6.18-2.18-6.18-7.24v-2.43c0-5,1.85-7.24,6.08-7.24a6.74,6.74,0,0,1,3.2.67l.9.67v-7.62h3.27V217h-2.53Zm-7.46-5.89c0,3.3,1.09,4.83,3.46,4.83s3.49-1.44,3.49-4.35V207.4c0-2.91-1.15-4.35-3.49-4.35s-3.46,1.53-3.46,4.83Z"/><path class="cls-1" d="M441.05,194.14v17.1c0,2.37.64,3.11,2.79,3.11h.7V217h-.83c-4.74,0-5.93-1.22-5.93-6.09V194.14Z"/><path class="cls-1" d="M444.73,200.74H448l4.2,12.55L456,200.74h3.3l-6.15,18.32c-1.64,4.61-2.53,5.28-7.27,5.32v-2.69c2.5,0,3-.36,3.94-2.92l.64-1.92Z"/><path class="cls-1" d="M470.26,212.24l-1.6,4.77h-3.72l8.33-22.87h3.3L484.89,217h-3.71l-1.6-4.77Zm4.67-13.94-3.84,11.18h7.65Z"/><path class="cls-1" d="M490.5,217h-3.43V194.14h7.53c3,0,4.64.51,5.89,1.83s1.7,2.85,1.7,5.28c0,2.63-.61,4.39-2,5.64-1.21,1.09-2.85,1.54-5.6,1.54h-4.1Zm4.1-11.37c2.91,0,4.19-1.35,4.19-4.36s-1.28-4.38-4.19-4.38h-4.17v8.74Z"/><path class="cls-1" d="M505.84,194.14h3.43V217h-3.43Z"/><path class="cls-1" d="M519.55,207.63c0-5,2.11-7.21,6.88-7.21s6.85,2.21,6.85,7.21v2.49c0,5-2.11,7.21-6.85,7.21s-6.88-2.21-6.88-7.21Zm10.47.22c0-3.33-1.09-4.8-3.62-4.8s-3.59,1.47-3.59,4.8v2.05c0,3.33,1.09,4.8,3.59,4.8s3.62-1.47,3.62-4.8Z"/><path class="cls-1" d="M536,203.37v-2.63h2v-2.21c0-3.4,1.22-4.48,5-4.39h1.63v2.5h-1c-2,0-2.37.35-2.37,2.21v1.89h3.52v2.63h-3.52V217H538V203.37Z"/><path class="cls-1" d="M557.18,217h-3.43V194.14h7.53c3,0,4.64.51,5.89,1.83s1.7,2.85,1.7,5.28c0,2.63-.61,4.39-2,5.64-1.22,1.09-2.85,1.54-5.6,1.54h-4.1Zm4.1-11.37c2.91,0,4.19-1.35,4.19-4.36s-1.28-4.38-4.19-4.38h-4.17v8.74Z"/><path class="cls-1" d="M571.52,207.63c0-5,2.12-7.21,6.89-7.21s6.85,2.21,6.85,7.21v2.49c0,5-2.11,7.21-6.85,7.21s-6.89-2.21-6.89-7.21Zm10.48.22c0-3.33-1.09-4.8-3.62-4.8s-3.59,1.47-3.59,4.8v2.05c0,3.33,1.09,4.8,3.59,4.8s3.62-1.47,3.62-4.8Z"/><path class="cls-1" d="M587.7,200.74H591l3.17,12.11,3.74-12.11h2.31L604,212.85l3.17-12.11h3.3L605.51,217h-2.73l-3.71-11.31L595.35,217h-2.72Z"/><path class="cls-1" d="M616.2,210.22c0,2.95,1.41,4.52,4,4.52a3.9,3.9,0,0,0,3.52-1.64l2.43,1.44c-1.34,2-3.17,2.79-6.27,2.79-4.84,0-7-2.37-7-7.72v-1.25c0-5.57,2-7.94,6.79-7.94s6.79,2.37,6.79,7.94v1.28H616.2Zm7.21-2.92V207c0-2.62-1.25-4-3.59-4a3.08,3.08,0,0,0-3,1.44,5.55,5.55,0,0,0-.64,2.63v.28Z"/><path class="cls-1" d="M630.29,200.74h2.53l.36,1.38a4.1,4.1,0,0,1,3.65-1.7,6.29,6.29,0,0,1,3.3.93l-1.41,2.72a3.48,3.48,0,0,0-2.21-.83c-2.09,0-3,1.73-3,5.86V217h-3.27Z"/><path class="cls-1" d="M647.62,202.79c0-3.27.51-5.09,1.89-6.6,1.5-1.66,3.43-2.37,6.37-2.37,3.14,0,5.22.87,6.66,2.76,1.12,1.44,1.57,3.2,1.57,6.21v5.57c0,3.27-.51,5.13-1.89,6.6-1.5,1.67-3.42,2.37-6.34,2.37-3.17,0-5.25-.86-6.69-2.75-1.12-1.45-1.57-3.21-1.57-6.22Zm13.07.32c0-4.58-1.45-6.5-4.81-6.5s-4.83,1.92-4.83,6.5V208c0,4.58,1.44,6.5,4.83,6.5s4.81-1.92,4.81-6.5Z"/><path class="cls-1" d="M671.74,200.74v9c0,3.43.86,4.8,3,4.8s3.2-1.5,3.2-5.47v-8.33h3.27V217h-2.37l-.35-1.67c-.9,1.41-2.18,2-4.3,2-2.75,0-4.54-1.06-5.28-3.14a12.78,12.78,0,0,1-.48-4.13v-9.32Z"/><path class="cls-1" d="M684.38,203.37v-2.63h1.89l.16-5h3.11v5h3.2v2.63h-3.2v7.87c0,2.37.64,3.14,2.76,3.08h.51V217h-.58c-4.87,0-6-1.12-6-6.09v-7.55Z"/><path class="cls-1" d="M704.63,206.41c0-2.37-.93-3.36-3.18-3.36a4.51,4.51,0,0,0-3.58,1.63L695.63,203a7.33,7.33,0,0,1,6.15-2.59c2.72,0,4.58.86,5.47,2.56a8.09,8.09,0,0,1,.64,4V217H705.3l-.23-1.06c-1,1-2.21,1.38-4.58,1.38-4.1,0-5.6-1.31-5.6-5s1.54-5,6.15-5h3.59Zm-3.24,3.23c-2.47,0-3.39.74-3.39,2.66s.83,2.47,3.29,2.47c1.54,0,2.44-.29,3-1a3.28,3.28,0,0,0,.39-2.05v-2.12Z"/><path class="cls-1" d="M722,216a5.69,5.69,0,0,1-4.2,1.35c-4.16,0-6-2.24-6-7.24v-2.43c0-5,1.86-7.24,6.05-7.24,2.18,0,3.43.45,4.58,1.6l.29-1.28h2.53v16c0,5.22-2.34,7.75-7.11,7.75-2.85,0-4.68-.87-5.92-2.85l2.43-1.41A3.59,3.59,0,0,0,718,222c2.69,0,3.88-1.47,4-4.83Zm-7-6.11c0,3.3,1.09,4.83,3.46,4.83s3.49-1.44,3.49-4.35V207.4c0-2.91-1.15-4.35-3.49-4.35s-3.46,1.53-3.46,4.83Z"/><path class="cls-1" d="M732.55,210.22c0,2.95,1.41,4.52,4,4.52a3.9,3.9,0,0,0,3.52-1.64l2.44,1.44c-1.35,2-3.18,2.79-6.28,2.79-4.84,0-7-2.37-7-7.72v-1.25c0-5.57,2-7.94,6.79-7.94s6.79,2.37,6.79,7.94v1.28H732.55Zm7.21-2.92V207c0-2.62-1.25-4-3.59-4a3.08,3.08,0,0,0-3,1.44,5.55,5.55,0,0,0-.64,2.63v.28Z"/><path class="cls-1" d="M752.89,194.14h3.43V217h-3.43Z"/><path class="cls-1" d="M761.35,200.74h2.49l.26,1.63c1-1.37,2.3-2,4.45-2,2.85,0,4.68,1.06,5.45,3.14a12.9,12.9,0,0,1,.48,4.13V217h-3.27v-9c0-3.46-.9-4.83-3.2-4.83-2.47,0-3.4,1.5-3.4,5.47V217h-3.26Z"/><path class="cls-1" d="M777.65,203.37v-2.63h2v-2.21c0-3.4,1.22-4.48,5-4.39h1.63v2.5h-1c-2,0-2.37.35-2.37,2.21v1.89h3.52v2.63h-3.52V217H779.6V203.37Z"/><path class="cls-1" d="M788.6,207.63c0-5,2.11-7.21,6.89-7.21s6.85,2.21,6.85,7.21v2.49c0,5-2.11,7.21-6.85,7.21s-6.89-2.21-6.89-7.21Zm10.47.22c0-3.33-1.09-4.8-3.62-4.8s-3.58,1.47-3.58,4.8v2.05c0,3.33,1.08,4.8,3.58,4.8s3.62-1.47,3.62-4.8Z"/><path class="cls-1" d="M806.34,200.74h2.53l.35,1.38a4.13,4.13,0,0,1,3.66-1.7,6.23,6.23,0,0,1,3.29.93l-1.4,2.72a3.5,3.5,0,0,0-2.21-.83c-2.09,0-2.95,1.73-2.95,5.86V217h-3.27Z"/><path class="cls-1" d="M818,200.74h2.5l.25,1.6a4.48,4.48,0,0,1,4.1-1.92,4.86,4.86,0,0,1,4.58,2.37c.93-1.63,2.37-2.37,4.65-2.37,2.75,0,4.48,1,5.22,3.14a13.11,13.11,0,0,1,.44,4.13V217h-3.26v-9c0-3.43-.84-4.8-2.92-4.8s-3,1.53-3,5.34V217h-3.27v-9c0-3.49-.8-4.83-2.91-4.83s-3.08,1.5-3.08,5.44V217H818Z"/><path class="cls-1" d="M852.75,206.41c0-2.37-.93-3.36-3.17-3.36a4.53,4.53,0,0,0-3.59,1.63L843.75,203a7.33,7.33,0,0,1,6.15-2.59c2.72,0,4.58.86,5.47,2.56a8.09,8.09,0,0,1,.64,4V217h-2.59L853.2,216c-1,1-2.21,1.38-4.58,1.38-4.1,0-5.61-1.31-5.61-5s1.54-5,6.15-5h3.59Zm-3.24,3.23c-2.46,0-3.39.74-3.39,2.66s.83,2.47,3.3,2.47c1.53,0,2.43-.29,2.94-1a3.28,3.28,0,0,0,.39-2.05v-2.12Z"/><path class="cls-1" d="M859,203.37v-2.63h1.89l.16-5h3.11v5h3.2v2.63h-3.2v7.87c0,2.37.64,3.14,2.76,3.08h.51V217h-.58c-4.87,0-6-1.12-6-6.09v-7.55Z"/><path class="cls-1" d="M870.68,194H874v3.72h-3.27Zm0,6.76H874V217h-3.27Z"/><path class="cls-1" d="M878,207.63c0-5,2.12-7.21,6.89-7.21s6.85,2.21,6.85,7.21v2.49c0,5-2.11,7.21-6.85,7.21s-6.89-2.21-6.89-7.21Zm10.48.22c0-3.33-1.09-4.8-3.62-4.8s-3.59,1.47-3.59,4.8v2.05c0,3.33,1.09,4.8,3.59,4.8s3.62-1.47,3.62-4.8Z"/><path class="cls-1" d="M895.73,200.74h2.5l.25,1.63a4.93,4.93,0,0,1,4.45-2c2.85,0,4.68,1.06,5.45,3.14a12.9,12.9,0,0,1,.48,4.13V217h-3.27v-9c0-3.46-.9-4.83-3.2-4.83-2.47,0-3.4,1.5-3.4,5.47V217h-3.26Z"/><path class="cls-1" d="M919,194h3.27v3.72H919Zm0,6.76h3.27V217H919Z"/><path class="cls-1" d="M926.86,200.74h2.5l.25,1.63a4.93,4.93,0,0,1,4.45-2c2.85,0,4.68,1.06,5.45,3.14a12.9,12.9,0,0,1,.48,4.13V217h-3.27v-9c0-3.46-.89-4.83-3.2-4.83-2.47,0-3.4,1.5-3.4,5.47V217h-3.26Z"/><path class="cls-1" d="M959.85,194.14V208c0,3.88-.16,5.22-.84,6.44-1,1.89-2.91,2.85-5.63,2.85a8.45,8.45,0,0,1-6.22-2.5l1.89-2.27a5.51,5.51,0,0,0,4,2,3,3,0,0,0,3-2.21,14.81,14.81,0,0,0,.32-4.22v-14Z"/><path class="cls-1" d="M973.3,206.41c0-2.37-.93-3.36-3.17-3.36a4.52,4.52,0,0,0-3.59,1.63L964.3,203a7.33,7.33,0,0,1,6.15-2.59c2.72,0,4.58.86,5.47,2.56a8.09,8.09,0,0,1,.64,4V217H974l-.23-1.06c-1,1-2.21,1.38-4.58,1.38-4.09,0-5.6-1.31-5.6-5s1.54-5,6.15-5h3.59Zm-3.24,3.23c-2.46,0-3.39.74-3.39,2.66s.83,2.47,3.3,2.47c1.53,0,2.43-.29,2.94-1a3.28,3.28,0,0,0,.39-2.05v-2.12Z"/><path class="cls-1" d="M981,200.74h2.53l.32,1.22a6.08,6.08,0,0,1,4.49-1.54c4.26,0,6.12,2.21,6.12,7.24v2.43c0,5-1.86,7.24-6.12,7.24a6.16,6.16,0,0,1-4.07-1.28v8.17H981Zm10.22,7.14c0-3.3-1.09-4.83-3.46-4.83s-3.49,1.44-3.49,4.35v2.95c0,2.91,1.15,4.35,3.49,4.35s3.46-1.53,3.46-4.83Z"/><path class="cls-1" d="M1007.05,206.41c0-2.37-.93-3.36-3.17-3.36a4.53,4.53,0,0,0-3.59,1.63L998.05,203a7.35,7.35,0,0,1,6.15-2.59c2.72,0,4.58.86,5.48,2.56a8.09,8.09,0,0,1,.64,4V217h-2.59l-.23-1.06c-1,1-2.21,1.38-4.58,1.38-4.1,0-5.6-1.31-5.6-5s1.53-5,6.15-5h3.58Zm-3.23,3.23c-2.47,0-3.4.74-3.4,2.66s.84,2.47,3.3,2.47c1.54,0,2.44-.29,2.95-1a3.3,3.3,0,0,0,.38-2.05v-2.12Z"/><path class="cls-1" d="M1014.74,200.74h2.5l.25,1.63a4.93,4.93,0,0,1,4.45-2c2.86,0,4.68,1.06,5.45,3.14a12.9,12.9,0,0,1,.48,4.13V217h-3.27v-9c0-3.46-.89-4.83-3.2-4.83-2.47,0-3.39,1.5-3.39,5.47V217h-3.27Z"/><rect class="cls-2" x="999.97" y="127" width="119.68" height="49.41" rx="24.71"/><path class="cls-1" d="M1031.56,162.47l-2.5,7.46h-5.81l13-35.77h5.16l13,35.77h-5.81l-2.51-7.46Zm7.32-21.8-6,17.49h12Z"/><path class="cls-1" d="M1063.22,169.93h-5.36V134.16h11.77c4.71,0,7.27.8,9.22,2.86s2.66,4.45,2.66,8.26c0,4.11-1,6.86-3.11,8.82-1.9,1.7-4.46,2.4-8.77,2.4h-6.41Zm6.41-17.79c4.56,0,6.57-2.1,6.57-6.81s-2-6.86-6.57-6.86h-6.51v13.67Z"/><path class="cls-1" d="M1087.21,134.16h5.36v35.77h-5.36Z"/><polygon class="cls-1" points="75.33 80 102 0 0 99 47.42 99 75.33 80"/><polygon class="cls-3" points="122.76 80 75.33 80 47.42 99 20.76 179 122.76 80"/></svg>